<svg xmlns="http://www.w3.org/2000/svg" version="1.1" xmlns:xlink="http://www.w3.org/1999/xlink" xmlns:svgjs="http://svgjs.dev/svgjs" width="1000" height="469" viewBox="0 0 1000 469"><g transform="matrix(1,0,0,1,-0.6060277394989839,-0.5230443954764326)"><svg viewBox="0 0 396 186" data-background-color="#e6b17e" preserveAspectRatio="xMidYMid meet" height="469" width="1000" xmlns="http://www.w3.org/2000/svg" xmlns:xlink="http://www.w3.org/1999/xlink"><g id="tight-bounds" transform="matrix(1,0,0,1,0.2399869848416074,0.20743339452397436)"><svg viewBox="0 0 395.52 185.58513322048964" height="185.58513322048964" width="395.52"><g><svg viewBox="0 0 395.52 185.58513322048964" height="185.58513322048964" width="395.52"><g transform="matrix(1,0,0,1,0,112.38245069373161)"><svg viewBox="0 0 395.52 73.20268252675804" height="73.20268252675804" width="395.52"><g id="textblocktransform"><svg viewBox="0 0 395.52 73.20268252675804" height="73.20268252675804" width="395.52" id="textblock"><g><svg viewBox="0 0 395.52 47.511578651586724" height="47.511578651586724" width="395.52"><g transform="matrix(1,0,0,1,0,0)"><svg width="395.52" viewBox="4.699999809265137 -35.5 299.66748046875 36.001922607421875" height="47.511578651586724" data-palette-color="#551e19"><path d="M6.2-35L18.95-35Q22.65-35 25.43-33.6 28.2-32.2 30-29.73 31.8-27.25 32.68-24.1 33.55-20.95 33.55-17.5L33.55-17.5Q33.55-12.7 31.98-8.72 30.4-4.75 27.18-2.38 23.95 0 18.95 0L18.95 0 6.2 0Q5.6 0 5.15-0.45 4.7-0.9 4.7-1.5L4.7-1.5 4.7-33.5Q4.7-34.1 5.15-34.55 5.6-35 6.2-35L6.2-35ZM7.55-2.95L18.45-2.95Q22.7-2.95 25.3-4.9 27.9-6.85 29.13-10.18 30.35-13.5 30.35-17.5L30.35-17.5Q30.35-20.4 29.68-23.03 29-25.65 27.58-27.68 26.15-29.7 23.88-30.88 21.6-32.05 18.45-32.05L18.45-32.05 7.5-32.05 7.85-32.5 7.85-2.45 7.55-2.95ZM42.15-35L42.15-35 60.5-35Q61.1-35 61.55-34.58 62-34.15 62-33.5L62-33.5Q62-32.85 61.55-32.45 61.1-32.05 60.5-32.05L60.5-32.05 43.3-32.05 43.8-32.9 43.8-18.85 43.25-19.5 58.25-19.5Q58.85-19.5 59.3-19.05 59.75-18.6 59.75-18L59.75-18Q59.75-17.35 59.3-16.95 58.85-16.55 58.25-16.55L58.25-16.55 43.35-16.55 43.8-17.05 43.8-2.65 43.55-2.95 60.5-2.95Q61.1-2.95 61.55-2.5 62-2.05 62-1.45L62-1.45Q62-0.8 61.55-0.4 61.1 0 60.5 0L60.5 0 42.15 0Q41.55 0 41.1-0.45 40.65-0.9 40.65-1.5L40.65-1.5 40.65-33.5Q40.65-34.1 41.1-34.55 41.55-35 42.15-35ZM78.7 0.5L78.7 0.5Q74.9 0.55 72.1-0.7 69.3-1.95 66.75-4.45L66.75-4.45Q66.5-4.65 66.32-4.95 66.15-5.25 66.15-5.65L66.15-5.65Q66.15-6.25 66.62-6.75 67.1-7.25 67.7-7.25L67.7-7.25Q68.3-7.25 68.8-6.75L68.8-6.75Q70.75-4.65 73.22-3.55 75.7-2.45 78.55-2.45L78.55-2.45Q80.95-2.45 82.82-3.2 84.7-3.95 85.8-5.35 86.9-6.75 86.9-8.6L86.9-8.6Q86.9-10.9 85.65-12.33 84.4-13.75 82.35-14.68 80.3-15.6 77.8-16.35L77.8-16.35Q75.75-16.95 73.9-17.73 72.05-18.5 70.6-19.63 69.15-20.75 68.35-22.4 67.55-24.05 67.55-26.4L67.55-26.4Q67.55-29.05 68.95-31.1 70.35-33.15 72.92-34.33 75.5-35.5 78.9-35.5L78.9-35.5Q81.85-35.5 84.57-34.5 87.3-33.5 88.9-31.55L88.9-31.55Q89.65-30.75 89.65-30.1L89.65-30.1Q89.65-29.6 89.15-29.1 88.65-28.6 88.05-28.6L88.05-28.6Q87.55-28.6 87.2-28.95L87.2-28.95Q86.35-30 85.05-30.83 83.75-31.65 82.17-32.1 80.6-32.55 78.9-32.55L78.9-32.55Q76.55-32.55 74.67-31.83 72.8-31.1 71.72-29.75 70.65-28.4 70.65-26.5L70.65-26.5Q70.65-24.4 71.85-23.05 73.05-21.7 75-20.83 76.95-19.95 79.15-19.2L79.15-19.2Q81.3-18.6 83.27-17.82 85.25-17.05 86.77-15.9 88.3-14.75 89.17-13 90.05-11.25 90.05-8.6L90.05-8.6Q90.05-6.05 88.6-4 87.15-1.95 84.62-0.75 82.1 0.45 78.7 0.5ZM107.54 0L107.54 0Q106.84 0 106.42-0.45 105.99-0.9 105.99-1.5L105.99-1.5 105.99-33.35 109.09-33.35 109.09-1.5Q109.09-0.9 108.64-0.45 108.19 0 107.54 0ZM119.44-32.15L95.64-32.15Q95.04-32.15 94.59-32.55 94.14-32.95 94.14-33.6L94.14-33.6Q94.14-34.2 94.59-34.6 95.04-35 95.64-35L95.64-35 119.44-35Q120.04-35 120.49-34.6 120.94-34.2 120.94-33.55L120.94-33.55Q120.94-32.9 120.49-32.52 120.04-32.15 119.44-32.15L119.44-32.15ZM142.49-35L154.34-35Q157.14-35 159.29-33.73 161.44-32.45 162.69-30.2 163.94-27.95 163.94-25.05L163.94-25.05Q163.94-22.15 162.69-19.83 161.44-17.5 159.29-16.15 157.14-14.8 154.34-14.8L154.34-14.8 143.74-14.8 143.99-15.3 143.99-1.5Q143.99-0.9 143.54-0.45 143.09 0 142.49 0L142.49 0Q141.79 0 141.39-0.45 140.99-0.9 140.99-1.5L140.99-1.5 140.99-33.5Q140.99-34.1 141.44-34.55 141.89-35 142.49-35L142.49-35ZM143.69-17.7L154.34-17.7Q156.29-17.7 157.74-18.68 159.19-19.65 160.01-21.33 160.84-23 160.84-25.05L160.84-25.05Q160.84-27.1 160.01-28.68 159.19-30.25 157.74-31.15 156.29-32.05 154.34-32.05L154.34-32.05 143.74-32.05 143.99-32.5 143.99-17.4 143.69-17.7ZM173.94-33.45L173.94-1.55Q173.89-0.9 173.41-0.45 172.94 0 172.34 0L172.34 0Q171.64 0 171.21-0.45 170.79-0.9 170.79-1.55L170.79-1.55 170.79-33.45Q170.79-34.1 171.24-34.55 171.69-35 172.39-35L172.39-35Q172.99-35 173.46-34.55 173.94-34.1 173.94-33.45L173.94-33.45ZM208.83-32.4L208.83-32.4Q209.43-32 209.53-31.38 209.63-30.75 209.23-30.15L209.23-30.15Q208.88-29.7 208.33-29.65 207.78-29.6 207.28-29.85L207.28-29.85Q205.38-31.1 203.21-31.8 201.03-32.5 198.53-32.5L198.53-32.5Q195.48-32.5 192.86-31.43 190.23-30.35 188.28-28.33 186.33-26.3 185.26-23.55 184.18-20.8 184.18-17.5L184.18-17.5Q184.18-14.1 185.28-11.33 186.38-8.55 188.36-6.55 190.33-4.55 192.93-3.5 195.53-2.45 198.53-2.45L198.53-2.45Q200.98-2.45 203.16-3.15 205.33-3.85 207.23-5.05L207.23-5.05Q207.73-5.35 208.31-5.28 208.88-5.2 209.23-4.7L209.23-4.7Q209.68-4.15 209.56-3.53 209.43-2.9 208.88-2.55L208.88-2.55Q207.63-1.75 205.93-1.05 204.23-0.35 202.33 0.08 200.43 0.5 198.53 0.5L198.53 0.5Q194.93 0.5 191.78-0.8 188.63-2.1 186.18-4.48 183.73-6.85 182.36-10.15 180.98-13.45 180.98-17.5L180.98-17.5Q180.98-21.4 182.33-24.68 183.68-27.95 186.08-30.35 188.48-32.75 191.68-34.1 194.88-35.45 198.53-35.45L198.53-35.45Q201.38-35.45 204.03-34.65 206.68-33.85 208.83-32.4ZM240.93 0.2L240.93 0.2Q240.28 0.2 239.83-0.35L239.83-0.35 225.63-18.2 227.98-20.55 242.28-2.45Q242.63-1.95 242.63-1.4L242.63-1.4Q242.63-0.6 242.06-0.2 241.48 0.2 240.93 0.2ZM240.38-34.9L240.38-34.9Q240.98-34.9 241.41-34.45 241.83-34 241.83-33.45L241.83-33.45Q241.83-32.85 241.38-32.4L241.38-32.4 218.68-11.15 218.28-14.55 239.28-34.4Q239.78-34.9 240.38-34.9ZM217.48 0L217.48 0Q216.78 0 216.36-0.45 215.93-0.9 215.93-1.55L215.93-1.55 215.93-33.45Q215.93-34.1 216.38-34.55 216.83-35 217.53-35L217.53-35Q218.18-35 218.63-34.55 219.08-34.1 219.08-33.45L219.08-33.45 219.08-1.55Q219.03-0.9 218.58-0.45 218.13 0 217.48 0ZM251.18-35L251.18-35 269.53-35Q270.13-35 270.58-34.58 271.03-34.15 271.03-33.5L271.03-33.5Q271.03-32.85 270.58-32.45 270.13-32.05 269.53-32.05L269.53-32.05 252.33-32.05 252.83-32.9 252.83-18.85 252.28-19.5 267.28-19.5Q267.88-19.5 268.33-19.05 268.78-18.6 268.78-18L268.78-18Q268.78-17.35 268.33-16.95 267.88-16.55 267.28-16.55L267.28-16.55 252.38-16.55 252.83-17.05 252.83-2.65 252.58-2.95 269.53-2.95Q270.13-2.95 270.58-2.5 271.03-2.05 271.03-1.45L271.03-1.45Q271.03-0.8 270.58-0.4 270.13 0 269.53 0L269.53 0 251.18 0Q250.58 0 250.13-0.45 249.68-0.9 249.68-1.5L249.68-1.5 249.68-33.5Q249.68-34.1 250.13-34.55 250.58-35 251.18-35ZM279.78 0L279.78 0Q279.03 0 278.55-0.45 278.08-0.9 278.08-1.5L278.08-1.5 278.08-33.5Q278.08-34.1 278.53-34.55 278.98-35 279.58-35L279.58-35 293.08-35Q295.93-35 298.18-33.77 300.43-32.55 301.7-30.4 302.98-28.25 302.98-25.55L302.98-25.55Q302.98-23.35 302.18-21.5 301.38-19.65 299.93-18.38 298.48-17.1 296.68-16.5L296.68-16.5 294.93-17.05Q296.78-16.9 298.38-15.88 299.98-14.85 300.95-13.08 301.93-11.3 301.98-8.8L301.98-8.8Q302.03-6.65 302.2-5.45 302.38-4.25 302.73-3.65 303.08-3.05 303.63-2.7L303.63-2.7Q304.13-2.4 304.3-1.85 304.48-1.3 304.18-0.8L304.18-0.8Q303.98-0.4 303.6-0.23 303.23-0.05 302.83-0.05 302.43-0.05 302.03-0.25L302.03-0.25Q301.33-0.65 300.6-1.5 299.88-2.35 299.4-4 298.93-5.65 298.93-8.6L298.93-8.6Q298.93-10.55 298.3-11.8 297.68-13.05 296.7-13.73 295.73-14.4 294.55-14.68 293.38-14.95 292.33-14.95L292.33-14.95 280.68-14.95 281.23-15.65 281.23-1.5Q281.23-0.9 280.83-0.45 280.43 0 279.78 0ZM281.23-17L280.68-17.7 293.23-17.7Q294.93-17.85 296.43-18.82 297.93-19.8 298.85-21.5 299.78-23.2 299.78-25.45L299.78-25.45Q299.78-28.3 297.85-30.18 295.93-32.05 292.83-32.05L292.83-32.05 280.88-32.05 281.23-32.75 281.23-17Z" opacity="1" transform="matrix(1,0,0,1,0,0)" fill="#551e19" class="wordmark-text-0" data-fill-palette-color="primary" id="text-0"></path></svg></g></svg></g><g transform="matrix(1,0,0,1,75.54432,58.72792209333871)"><svg viewBox="0 0 244.43135999999998 14.474760433419329" height="14.474760433419329" width="244.43135999999998"><g transform="matrix(1,0,0,1,0,0)"><svg width="244.43135999999998" viewBox="0.17000001668930054 -35.790000915527344 615.0599975585938 36.42000198364258" height="14.474760433419329" data-palette-color="#c56e33"><path d="M33.28-34.96L45.34-33.89 39.62-1.03 25.76-0.73 22.78-17.29 19.8-2 5.93-1.51 0.17-32.91 12.28-33.98 14.72-14.7 17.99-32.52 27.51-32.52 31.32-14.45 33.28-34.96ZM73.22-19.73L73.22-19.73Q73.22-17.6 72.92-15.48L72.92-15.48Q68.75-15.21 64.62-14.61 60.5-14.01 56.37-13.43L56.37-13.43Q57-11.67 58.36-10.62 59.71-9.57 61.59-9.57L61.59-9.57Q62.57-9.57 63.73-9.94 64.89-10.3 66.04-10.85 67.19-11.4 68.23-12.04 69.28-12.67 70.04-13.18L70.04-13.18 68.87-2.1Q67.92-1.37 66.81-0.85 65.7-0.34 64.5-0.02 63.3 0.29 62.08 0.44 60.86 0.59 59.69 0.59L59.69 0.59Q57.27 0.59 55.27-0.07 53.27-0.73 51.65-1.92 50.02-3.1 48.8-4.71 47.58-6.32 46.77-8.23 45.97-10.13 45.55-12.26 45.14-14.38 45.14-16.55L45.14-16.55Q45.14-18.82 45.55-21.09 45.97-23.36 46.81-25.46 47.65-27.56 48.94-29.36 50.22-31.15 51.93-32.5 53.64-33.84 55.8-34.59 57.96-35.35 60.57-35.35L60.57-35.35Q62.74-35.35 64.54-34.75 66.33-34.16 67.73-33.09 69.14-32.03 70.18-30.57 71.21-29.1 71.88-27.36 72.56-25.61 72.89-23.67 73.22-21.73 73.22-19.73ZM63.45-20.46L63.45-21Q63.45-21.68 63.3-22.4 63.16-23.12 62.83-23.71 62.5-24.29 61.96-24.67 61.42-25.05 60.62-25.05L60.62-25.05Q59.64-25.05 58.9-24.52 58.15-24 57.61-23.21 57.08-22.41 56.74-21.48 56.39-20.56 56.22-19.78L56.22-19.78 63.45-20.46ZM113.01-22.51L113.01-22.51Q113.01-20.14 112.3-18.31 111.59-16.48 110.36-15.1 109.12-13.72 107.46-12.78 105.8-11.84 103.91-11.24 102.02-10.64 99.99-10.36 97.97-10.08 96.01-10.06L96.01-10.06 96.01 0.34 84.64 0.34Q84.64-2.44 84.65-5.08 84.66-7.71 84.67-10.31 84.68-12.92 84.7-15.55 84.71-18.19 84.73-21L84.73-21Q84.78-23.97 84.76-26.95 84.73-29.93 84.88-32.96L84.88-32.96Q88.01-33.89 91.13-34.35 94.26-34.81 97.58-34.81L97.58-34.81Q99.46-34.81 101.34-34.51 103.22-34.2 104.94-33.54 106.66-32.89 108.13-31.9 109.61-30.91 110.69-29.54 111.76-28.17 112.38-26.42 113.01-24.66 113.01-22.51ZM102.17-21.68L102.17-21.68Q102.17-23.27 101.2-24.16 100.24-25.05 98.7-25.05L98.7-25.05Q98.19-25.05 97.64-24.96 97.09-24.88 96.6-24.76L96.6-24.76 96.31-17.63Q96.65-17.58 96.97-17.58 97.28-17.58 97.62-17.58L97.62-17.58Q98.5-17.58 99.32-17.87 100.14-18.16 100.77-18.71 101.41-19.26 101.79-20.01 102.17-20.75 102.17-21.68ZM114.15-33.69L127.14-34.38 125.43-1.12 115.13-0.59 114.15-33.69ZM152.4-33.35L152.4-33.35 151.53-23.05Q150.82-23.24 150.13-23.32 149.45-23.39 148.74-23.39L148.74-23.39Q147.01-23.39 145.43-22.95 143.86-22.51 142.65-21.61 141.44-20.7 140.72-19.32 140-17.94 140-16.06L140-16.06Q140-14.7 140.4-13.68 140.81-12.67 141.55-12 142.3-11.33 143.36-10.99 144.42-10.64 145.72-10.64L145.72-10.64Q146.62-10.64 147.57-10.83 148.52-11.01 149.47-11.33 150.43-11.65 151.31-12.06 152.18-12.48 152.94-12.94L152.94-12.94 152.55-1.46Q151.6-0.98 150.5-0.6 149.4-0.22 148.24 0.06 147.08 0.34 145.92 0.49 144.76 0.63 143.71 0.63L143.71 0.63Q140.25 0.63 137.4-0.66 134.56-1.95 132.52-4.19 130.48-6.42 129.36-9.38 128.23-12.33 128.23-15.67L128.23-15.67Q128.23-19.68 129.37-23.14 130.51-26.61 132.71-29.16 134.92-31.71 138.18-33.17 141.44-34.62 145.67-34.62L145.67-34.62Q147.35-34.62 149.08-34.35 150.82-34.08 152.4-33.35ZM172.93-34.47L184.75-31.54 173.96-18.7 183.87-1.9 172.54 0.1 165.12-9.96 164.73-0.39 154.57 0 155.36-34.96 166.73-34.33 165.85-24.27 172.93-34.47ZM213.02-33.89L224.74-33.06 213.26-14.31 213.6-0.49 201.05-0.49 201.35-14.21 192.41-32.32 204.86-33.89 208.77-23.34 213.02-33.89ZM252.42-18.7L252.42-18.7Q252.42-16.48 251.91-14.42 251.39-12.35 250.43-10.55 249.46-8.74 248.09-7.24 246.71-5.74 244.98-4.66 243.26-3.59 241.24-2.99 239.21-2.39 236.94-2.39L236.94-2.39Q234.74-2.39 232.75-2.95 230.76-3.52 229.03-4.53 227.3-5.54 225.89-6.97 224.49-8.4 223.5-10.14 222.51-11.89 221.96-13.89 221.41-15.89 221.41-18.07L221.41-18.07Q221.41-20.19 221.93-22.23 222.44-24.27 223.4-26.07 224.37-27.88 225.73-29.39 227.1-30.91 228.8-32.01 230.5-33.11 232.47-33.72 234.45-34.33 236.65-34.33L236.65-34.33Q240.19-34.33 243.1-33.23 246.02-32.13 248.09-30.09 250.15-28.05 251.28-25.16 252.42-22.27 252.42-18.7ZM241.58-18.07L241.58-18.07Q241.58-19.12 241.27-20.1 240.97-21.09 240.38-21.86 239.8-22.63 238.93-23.11 238.06-23.58 236.94-23.58L236.94-23.58Q235.79-23.58 234.89-23.17 233.99-22.75 233.34-22.03 232.69-21.31 232.35-20.35 232.01-19.38 232.01-18.31L232.01-18.31Q232.01-17.29 232.3-16.26 232.59-15.23 233.18-14.4 233.77-13.57 234.63-13.06 235.5-12.55 236.65-12.55L236.65-12.55Q237.79-12.55 238.71-13 239.63-13.45 240.26-14.22 240.9-14.99 241.24-15.99 241.58-16.99 241.58-18.07ZM283.23-34.38L283.23-34.38Q282.13-25.78 281.35-17.27 280.57-8.76 279.86-0.15L279.86-0.15 269.85 0.59 270.29-3.17Q269.8-2.61 269.15-2.2 268.51-1.78 267.77-1.53 267.04-1.27 266.26-1.16 265.48-1.05 264.77-1.07L264.77-1.07Q263.11-1.1 261.64-1.72 260.18-2.34 258.96-3.38 257.74-4.42 256.76-5.8 255.79-7.18 255.11-8.7 254.44-10.23 254.09-11.82 253.73-13.4 253.73-14.89L253.73-14.89Q253.73-17.09 253.82-19.45 253.91-21.8 254.13-24.17 254.35-26.54 254.7-28.86 255.05-31.18 255.59-33.3L255.59-33.3Q258.57-33.15 261.57-33.03 264.57-32.91 267.55-32.96L267.55-32.96Q266.99-30.83 266.44-28.7 265.89-26.56 265.45-24.4 265.01-22.24 264.75-20.07 264.48-17.9 264.48-15.67L264.48-15.67Q264.48-15.16 264.53-14.21 264.57-13.26 264.78-12.33 264.99-11.4 265.42-10.71 265.84-10.01 266.63-10.01L266.63-10.01Q267.55-10.01 268.29-10.8 269.02-11.6 269.58-12.94 270.14-14.28 270.54-16.04 270.95-17.8 271.23-19.71 271.51-21.63 271.68-23.58 271.85-25.54 271.94-27.26 272.02-28.98 272.06-30.35 272.09-31.71 272.09-32.47L272.09-32.47Q272.09-32.96 272.07-33.42 272.05-33.89 272-34.38L272-34.38Q273.58-34.33 275.15-34.3 276.71-34.28 278.3-34.28L278.3-34.28Q279.52-34.28 280.75-34.29 281.98-34.3 283.23-34.38ZM313.3-23.54L313.3-23.54Q313.3-21.63 312.97-20.08 312.64-18.53 311.94-17.24 311.23-15.94 310.1-14.84 308.98-13.75 307.39-12.74L307.39-12.74 313.2-2.39 302.22-0.24 298.46-10.64 295.43-10.55 294.99-0.39 284.49-0.39Q284.62-5.96 284.73-11.47 284.84-16.99 284.98-22.56L284.98-22.56Q285.03-25.37 285.08-28.13 285.13-30.88 285.28-33.69L285.28-33.69Q286.98-34.33 288.64-34.74 290.3-35.16 291.98-35.39 293.65-35.62 295.37-35.71 297.09-35.79 298.9-35.79L298.9-35.79Q301.68-35.79 304.28-35.02 306.88-34.25 308.88-32.71 310.89-31.18 312.09-28.88 313.3-26.59 313.3-23.54ZM302.37-22.75L302.37-22.75Q302.37-23.78 302.08-24.63 301.8-25.49 301.25-26.11 300.7-26.73 299.89-27.09 299.07-27.44 297.97-27.44L297.97-27.44Q297.48-27.44 297.02-27.38 296.55-27.32 296.12-27.2L296.12-27.2 295.72-18.12 296.31-18.12Q297.36-18.12 298.45-18.38 299.53-18.65 300.4-19.21 301.27-19.78 301.82-20.65 302.37-21.53 302.37-22.75ZM352.41-19.38L352.41-19.38Q352.41-15.97 351.53-13.26 350.65-10.55 349.08-8.46 347.5-6.37 345.33-4.91 343.16-3.44 340.57-2.5 337.98-1.56 335.06-1.12 332.15-0.68 329.07-0.68L329.07-0.68Q327.92-0.68 326.82-0.74 325.72-0.81 324.58-0.93L324.58-0.93 325.26-32.71Q327.95-33.57 330.79-33.92 333.63-34.28 336.44-34.28L336.44-34.28Q339.93-34.28 342.86-33.3 345.79-32.32 347.92-30.43 350.04-28.54 351.22-25.77 352.41-23 352.41-19.38ZM336.78-24.17L335.81-10.01Q337.27-10.23 338.48-10.9 339.69-11.57 340.57-12.56 341.45-13.55 341.92-14.81 342.4-16.06 342.4-17.48L342.4-17.48Q342.4-18.87 342.11-20.08 341.81-21.29 341.15-22.18 340.49-23.07 339.42-23.6 338.35-24.12 336.78-24.17L336.78-24.17ZM381.17-19.73L381.17-19.73Q381.17-17.6 380.87-15.48L380.87-15.48Q376.7-15.21 372.57-14.61 368.45-14.01 364.32-13.43L364.32-13.43Q364.96-11.67 366.31-10.62 367.67-9.57 369.55-9.57L369.55-9.57Q370.52-9.57 371.68-9.94 372.84-10.3 373.99-10.85 375.14-11.4 376.19-12.04 377.24-12.67 377.99-13.18L377.99-13.18 376.82-2.1Q375.87-1.37 374.76-0.85 373.65-0.34 372.45-0.02 371.25 0.29 370.03 0.44 368.81 0.59 367.64 0.59L367.64 0.59Q365.22 0.59 363.22-0.07 361.22-0.73 359.6-1.92 357.97-3.1 356.75-4.71 355.53-6.32 354.73-8.23 353.92-10.13 353.51-12.26 353.09-14.38 353.09-16.55L353.09-16.55Q353.09-18.82 353.51-21.09 353.92-23.36 354.76-25.46 355.6-27.56 356.89-29.36 358.17-31.15 359.88-32.5 361.59-33.84 363.75-34.59 365.91-35.35 368.52-35.35L368.52-35.35Q370.69-35.35 372.49-34.75 374.28-34.16 375.69-33.09 377.09-32.03 378.13-30.57 379.16-29.1 379.84-27.36 380.51-25.61 380.84-23.67 381.17-21.73 381.17-19.73ZM371.4-20.46L371.4-21Q371.4-21.68 371.25-22.4 371.11-23.12 370.78-23.71 370.45-24.29 369.91-24.67 369.37-25.05 368.57-25.05L368.57-25.05Q367.59-25.05 366.85-24.52 366.1-24 365.57-23.21 365.03-22.41 364.69-21.48 364.34-20.56 364.17-19.78L364.17-19.78 371.4-20.46ZM407.78-12.5L407.78-12.5Q407.78-9.16 406.62-6.73 405.46-4.3 403.44-2.72 401.43-1.15 398.73-0.4 396.03 0.34 392.93 0.34L392.93 0.34Q391.73 0.34 390.31 0.02 388.88-0.29 387.41-0.77 385.95-1.25 384.59-1.79 383.24-2.34 382.19-2.83L382.19-2.83 383.26-12.4Q385.34-11.16 387.87-10.51 390.39-9.86 392.83-9.86L392.83-9.86Q393.3-9.86 393.96-9.9 394.62-9.94 395.21-10.12 395.81-10.3 396.23-10.67 396.64-11.04 396.64-11.72L396.64-11.72Q396.64-12.18 396.35-12.51 396.06-12.84 395.59-13.05 395.13-13.26 394.54-13.37 393.96-13.48 393.4-13.53 392.83-13.57 392.35-13.57 391.86-13.57 391.56-13.57L391.56-13.57Q389.46-13.57 387.74-14.23 386.02-14.89 384.79-16.1 383.56-17.31 382.87-19.03 382.19-20.75 382.19-22.85L382.19-22.85Q382.19-25.73 383.35-28.02 384.51-30.3 386.45-31.9 388.39-33.5 390.9-34.35 393.42-35.21 396.11-35.21L396.11-35.21Q397.3-35.21 398.57-35.12 399.84-35.03 401.1-34.81 402.36-34.59 403.55-34.25 404.75-33.91 405.82-33.4L405.82-33.4 404.89-23.49Q403.23-24.05 401.42-24.43 399.6-24.8 397.86-24.8L397.86-24.8Q397.55-24.8 397.05-24.79 396.54-24.78 396-24.72 395.45-24.66 394.88-24.54 394.32-24.41 393.88-24.21 393.44-24 393.18-23.66 392.91-23.32 392.93-22.85L392.93-22.85Q392.96-22.31 393.33-22.02 393.71-21.73 394.31-21.59 394.91-21.46 395.63-21.46 396.35-21.46 397.06-21.5 397.77-21.53 398.38-21.57 398.99-21.61 399.38-21.58L399.38-21.58Q401.33-21.46 402.89-20.75 404.45-20.04 405.54-18.87 406.63-17.7 407.2-16.08 407.78-14.45 407.78-12.5ZM407.99-34.38L434.6-34.42 434.36-24.07 427.08-23.78 426.21-1.12 415.9-0.59 414.97-23.24 407.7-22.85 407.99-34.38ZM435.75-33.69L448.74-34.38 447.03-1.12 436.73-0.59 435.75-33.69ZM481.01-12.35L481.01-12.35Q481.01-9.59 480.95-6.9 480.89-4.2 480.77-1.46L480.77-1.46 466.7-1.71Q467.44-6.03 467.97-10.34 468.51-14.65 468.51-19.04L468.51-19.04Q468.51-19.36 468.49-20.07 468.46-20.78 468.39-21.67 468.31-22.56 468.18-23.5 468.05-24.44 467.81-25.22 467.58-26 467.25-26.5 466.92-27 466.46-27L466.46-27Q465.63-27 465.06-26.51 464.48-26.03 464.1-25.26 463.72-24.49 463.5-23.54 463.29-22.58 463.18-21.63 463.07-20.68 463.03-19.84 462.99-18.99 462.99-18.46L462.99-18.46Q462.87-14.14 462.8-9.88 462.72-5.62 462.6-1.27L462.6-1.27 450.15-0.73Q450.64-9.35 451.09-17.87 451.54-26.39 451.81-35.01L451.81-35.01 463.33-35.6 463.24-31.69Q463.92-32.52 464.71-33.25 465.51-33.98 466.41-34.51 467.31-35.03 468.33-35.34 469.34-35.64 470.46-35.64L470.46-35.64Q472.54-35.64 474.1-34.96 475.66-34.28 476.79-33.11 477.91-31.93 478.67-30.33 479.42-28.74 479.89-26.93 480.35-25.12 480.59-23.16 480.84-21.19 480.92-19.29 481.01-17.38 481.01-15.6 481.01-13.82 481.01-12.35ZM504.57-34.96L514.09-2.1 501.98-0.54 500.51-6.05 494.95-6.05 493.73-0.54 481.28-1.76 490.99-34.28 504.57-34.96ZM495.97-13.53L499.64-13.53 497.78-22.02 495.97-13.53ZM510.84-34.38L537.45-34.42 537.21-24.07 529.93-23.78 529.05-1.12 518.75-0.59 517.82-23.24 510.55-22.85 510.84-34.38ZM538.59-33.69L551.58-34.38 549.87-1.12 539.57-0.59 538.59-33.69ZM583.49-18.7L583.49-18.7Q583.49-16.48 582.98-14.42 582.46-12.35 581.5-10.55 580.54-8.74 579.16-7.24 577.78-5.74 576.06-4.66 574.33-3.59 572.31-2.99 570.28-2.39 568.01-2.39L568.01-2.39Q565.81-2.39 563.82-2.95 561.83-3.52 560.1-4.53 558.37-5.54 556.96-6.97 555.56-8.4 554.57-10.14 553.58-11.89 553.03-13.89 552.48-15.89 552.48-18.07L552.48-18.07Q552.48-20.19 553-22.23 553.51-24.27 554.47-26.07 555.44-27.88 556.81-29.39 558.17-30.91 559.87-32.01 561.57-33.11 563.54-33.72 565.52-34.33 567.72-34.33L567.72-34.33Q571.26-34.33 574.18-33.23 577.09-32.13 579.16-30.09 581.22-28.05 582.35-25.16 583.49-22.27 583.49-18.7ZM572.65-18.07L572.65-18.07Q572.65-19.12 572.34-20.1 572.04-21.09 571.45-21.86 570.87-22.63 570-23.11 569.13-23.58 568.01-23.58L568.01-23.58Q566.86-23.58 565.96-23.17 565.06-22.75 564.41-22.03 563.76-21.31 563.42-20.35 563.08-19.38 563.08-18.31L563.08-18.31Q563.08-17.29 563.37-16.26 563.67-15.23 564.25-14.4 564.84-13.57 565.7-13.06 566.57-12.55 567.72-12.55L567.72-12.55Q568.87-12.55 569.78-13 570.7-13.45 571.33-14.22 571.97-14.99 572.31-15.99 572.65-16.99 572.65-18.07ZM615.23-12.35L615.23-12.35Q615.23-9.59 615.16-6.9 615.1-4.2 614.98-1.46L614.98-1.46 600.92-1.71Q601.65-6.03 602.19-10.34 602.73-14.65 602.73-19.04L602.73-19.04Q602.73-19.36 602.7-20.07 602.68-20.78 602.6-21.67 602.53-22.56 602.4-23.5 602.26-24.44 602.03-25.22 601.8-26 601.47-26.5 601.14-27 600.67-27L600.67-27Q599.84-27 599.27-26.51 598.7-26.03 598.32-25.26 597.94-24.49 597.72-23.54 597.5-22.58 597.39-21.63 597.28-20.68 597.24-19.84 597.21-18.99 597.21-18.46L597.21-18.46Q597.09-14.14 597.01-9.88 596.94-5.62 596.82-1.27L596.82-1.27 584.37-0.73Q584.85-9.35 585.31-17.87 585.76-26.39 586.03-35.01L586.03-35.01 597.55-35.6 597.45-31.69Q598.14-32.52 598.93-33.25 599.72-33.98 600.63-34.51 601.53-35.03 602.54-35.34 603.56-35.64 604.68-35.64L604.68-35.64Q606.75-35.64 608.32-34.96 609.88-34.28 611-33.11 612.13-31.93 612.88-30.33 613.64-28.74 614.1-26.93 614.57-25.12 614.81-23.16 615.05-21.19 615.14-19.29 615.23-17.38 615.23-15.6 615.23-13.82 615.23-12.35Z" opacity="1" transform="matrix(1,0,0,1,0,0)" fill="#c56e33" class="slogan-text-1" data-fill-palette-color="secondary" id="text-1"></path></svg></g></svg></g></svg></g></svg></g><g transform="matrix(1,0,0,1,127.27477534160093,0)"><svg viewBox="0 0 140.97044931679812 101.16610725197962" height="101.16610725197962" width="140.97044931679812"><g><svg xmlns="http://www.w3.org/2000/svg" xmlns:xlink="http://www.w3.org/1999/xlink" version="1.1" x="8.000000000000007" y="0" viewBox="4.999499797821045 13.572051048278809 90.00077056884766 72.8574447631836" enable-background="new 0 0 100 100" xml:space="preserve" height="101.16610725197962" width="124.97044931679811" class="icon-icon-0" data-fill-palette-color="accent" id="icon-0"><g fill="#c56e33" data-fill-palette-color="accent"><path fill="#c56e33" d="M23.81 76.102c-2.362 2.361-2.362 6.192 0 8.556 2.362 2.362 6.193 2.362 8.556 0 2.361-2.363 2.361-6.194 0-8.556C30.003 73.739 26.172 73.739 23.81 76.102zM94.226 14.432l-0.086-0.085c-1.157-1.158-3.192-1-4.544 0.352L66.65 37.643 51.499 22.492 8.754 65.237 6.787 63.27l42.745-42.746c-2.363-2.348-6.183-2.343-8.541 0.015L6.771 54.757c-2.362 2.363-2.362 6.195 0 8.558L20.41 76.951c0.407-0.912 0.983-1.769 1.732-2.517 3.284-3.284 8.608-3.284 11.891 0 0.776 0.774 1.366 1.667 1.775 2.616l35.124-35.125-0.006-0.004 22.945-22.945C95.226 17.623 95.383 15.589 94.226 14.432z" data-fill-palette-color="accent"></path></g></svg></g></svg></g><g><rect width="127.27477534160093" height="4.284643194749259" y="95.88146405723036" x="268.245224658399" fill="#c56e33" data-fill-palette-color="accent"></rect><rect width="127.27477534160093" height="4.284643194749259" y="95.88146405723036" x="0" fill="#c56e33" data-fill-palette-color="accent"></rect><rect width="127.27477534160093" height="4.284643194749259" y="87.31217766773185" x="268.245224658399" fill="#c56e33" data-fill-palette-color="accent"></rect><rect width="127.27477534160093" height="4.284643194749259" y="87.31217766773185" x="0" fill="#c56e33" data-fill-palette-color="accent"></rect></g></svg></g><defs></defs></svg><rect width="395.52" height="185.58513322048964" fill="none" stroke="none" visibility="hidden"></rect></g></svg></g></svg>